<?xml version="1.0" standalone="no"?>
<!DOCTYPE svg PUBLIC "-//W3C//DTD SVG 20010904//EN"
 "http://www.w3.org/TR/2001/REC-SVG-20010904/DTD/svg10.dtd">
<svg version="1.0" xmlns="http://www.w3.org/2000/svg"
 width="300.000000pt" height="298.000000pt" viewBox="0 0 300.000000 298.000000"
 preserveAspectRatio="xMidYMid meet">
<metadata>
Created by potrace 1.10, written by Peter Selinger 2001-2011
</metadata>
<g transform="translate(0.000000,298.000000) scale(0.100000,-0.100000)"
fill="#000000" stroke="none">
<path d="M317 2783 c5 -106 16 -139 69 -219 l45 -69 -6 -140 c-3 -77 -9 -152
-11 -167 l-6 -28 125 0 125 0 -1 65 c-2 68 -6 75 -27 50 -8 -9 -30 -15 -56
-15 l-44 0 0 75 0 75 33 0 c49 0 75 -25 113 -109 19 -42 47 -89 62 -104 26
-28 27 -29 8 -43 -11 -8 -39 -14 -63 -14 l-43 0 0 -110 c0 -85 -3 -110 -13
-110 -21 0 -101 56 -125 87 -57 74 -53 73 -46 18 4 -27 15 -75 25 -105 10 -30
16 -56 14 -58 -8 -8 -67 42 -101 86 l-37 47 7 -53 c14 -113 56 -173 164 -232
40 -22 42 -26 42 -69 0 -54 37 -101 80 -101 24 0 27 -5 43 -82 20 -97 50 -164
114 -260 96 -144 185 -216 346 -282 114 -46 207 -60 379 -54 134 5 149 7 235
40 125 48 173 78 265 166 128 123 193 239 239 430 9 37 13 42 38 42 40 0 65
33 71 93 5 51 6 53 56 80 76 40 119 93 144 177 28 93 24 115 -13 64 -29 -42
-105 -109 -113 -101 -3 3 -1 14 4 24 6 10 20 56 32 102 21 82 20 116 -3 76
-21 -39 -109 -123 -134 -130 -38 -9 -44 8 -41 113 l4 92 -41 0 c-29 0 -47 6
-60 20 -17 19 -17 21 9 55 15 19 42 68 60 108 35 75 60 97 111 97 24 0 25 -2
25 -80 l0 -80 -44 0 c-35 0 -48 5 -60 22 -15 21 -16 19 -16 -45 l0 -67 118 0
117 0 -3 173 -4 172 36 52 c52 76 66 119 73 218 l6 90 -61 -62 c-80 -82 -146
-124 -262 -169 -235 -90 -267 -94 -863 -89 -541 5 -580 8 -746 64 -174 59
-232 92 -342 199 l-56 54 4 -79z m2283 -78 c-24 -129 -93 -185 -276 -225 -48
-10 -92 -25 -99 -32 -7 -7 -23 -40 -36 -73 -37 -95 -99 -154 -178 -169 l-34
-6 6 146 c3 80 9 150 13 154 5 5 33 12 62 16 l52 7 0 -91 c0 -73 -3 -91 -16
-96 -27 -10 -34 -7 -48 27 l-14 32 -1 -43 -1 -43 48 3 47 3 5 109 5 110 85 33
c47 18 90 33 96 33 30 0 176 85 229 134 33 29 62 50 64 44 1 -5 -2 -38 -9 -73z
m-2098 -39 c37 -20 122 -56 190 -80 l123 -43 3 -112 3 -111 49 0 50 0 -1 38
c-1 36 -1 37 -11 10 -7 -20 -17 -28 -33 -28 -21 0 -23 4 -27 88 -3 48 -3 90 1
94 3 4 31 1 61 -5 l55 -12 3 -149 3 -149 -42 6 c-76 10 -118 58 -189 218 -9
21 -25 36 -40 40 -14 4 -56 14 -95 23 -93 22 -173 63 -207 107 -27 33 -62 153
-51 172 3 4 24 -10 47 -31 23 -21 72 -56 108 -76z m1442 -168 c18 -10 18 -28
12 -506 -7 -534 -12 -595 -60 -676 -91 -155 -344 -229 -571 -167 -94 26 -151
58 -218 120 -102 96 -108 136 -105 756 l3 480 360 6 c391 6 550 2 579 -13z
m-1389 -19 c50 -12 101 -24 115 -28 19 -5 34 -25 62 -83 22 -46 56 -97 83
-123 50 -51 52 -55 29 -90 -16 -25 -38 -31 -68 -19 -12 5 -13 10 -4 24 10 15
7 24 -18 52 -16 18 -44 68 -62 110 -29 65 -39 78 -70 92 -21 9 -53 17 -72 18
l-35 3 -3 -97 -3 -98 61 0 c57 0 60 -1 60 -25 0 -25 -1 -25 -90 -25 l-90 0 0
155 c0 85 3 155 8 155 4 0 48 -9 97 -21z m1951 -136 l-1 -158 -78 -3 c-79 -3
-107 6 -107 34 0 9 18 14 58 16 l57 3 3 97 3 97 -68 -3 c-37 -2 -71 -4 -74 -5
-4 -1 -10 -9 -13 -18 -6 -16 -6 -16 12 0 28 25 39 21 14 -6 -12 -13 -37 -54
-56 -93 -18 -38 -46 -84 -61 -102 -21 -25 -25 -36 -16 -45 20 -20 12 -28 -25
-25 -26 2 -40 10 -52 30 -16 27 -16 28 29 70 38 37 98 137 113 189 3 11 33 23
94 37 49 12 100 26 113 31 56 23 56 24 55 -146z m-1528 -215 l3 -48 -54 0
c-73 0 -86 16 -55 64 21 33 27 36 63 34 l40 -3 3 -47z m1100 16 c33 -51 24
-64 -43 -64 l-55 0 0 44 c0 34 4 46 18 49 42 11 58 6 80 -29z m-1272 -32 c17
-11 34 -48 34 -75 0 -26 -16 -37 -56 -37 -22 0 -24 -4 -24 -43 0 -24 -2 -46
-4 -48 -3 -2 -25 -3 -50 -1 l-46 4 0 98 c0 94 1 99 23 103 38 7 111 7 123 -1z
m1455 -2 l29 0 0 -99 0 -98 -41 -7 c-22 -4 -44 -4 -50 -1 -5 4 -8 25 -7 48 3
42 3 42 -34 45 -39 3 -44 10 -39 62 1 14 7 30 12 37 11 12 64 22 87 16 8 -1
27 -3 43 -3z m-1287 -81 c11 -57 7 -511 -5 -504 -24 15 -30 69 -29 267 l0 208
-35 0 c-30 0 -35 3 -35 23 0 32 7 37 55 37 40 0 43 -2 49 -31z m1100 25 c9 -3
16 -17 16 -30 0 -21 -5 -24 -35 -24 l-35 0 0 -197 c0 -202 -8 -260 -37 -284
-15 -13 -16 6 -10 255 4 147 10 272 13 277 6 10 64 12 88 3z m-1486 -140 c20
-10 66 -20 102 -23 69 -6 76 -14 79 -80 1 -23 0 -23 -82 -19 -111 6 -144 25
-174 98 -12 30 -25 68 -29 85 l-7 29 37 -36 c21 -20 54 -44 74 -54z m1877 44
c-15 -69 -51 -134 -81 -146 -45 -18 -105 -27 -154 -24 l-45 3 3 43 4 44 66 7
c81 8 137 32 176 74 17 17 32 31 34 31 2 0 0 -15 -3 -32z m-1553 -25 c3 -27 6
-118 6 -204 2 -161 8 -198 44 -236 11 -12 28 -50 38 -85 9 -35 21 -71 25 -80
12 -30 -21 -21 -50 13 -75 89 -95 174 -95 394 0 176 0 177 -21 172 -12 -3 -35
-3 -50 0 -25 5 -29 10 -29 39 l0 34 64 0 64 0 4 -47z m1242 41 c9 -4 16 -18
16 -34 0 -30 -15 -40 -61 -40 l-29 0 -1 -87 c-3 -221 -8 -268 -31 -338 -36
-104 -92 -184 -114 -163 -10 11 36 151 60 179 39 46 46 90 46 290 0 102 3 189
7 192 8 9 86 9 107 1z m-1639 -156 c22 -9 61 -26 88 -37 l47 -20 0 -60 0 -61
106 0 105 0 -3 -37 -3 -38 -95 -3 c-52 -2 -105 0 -117 3 -27 6 -44 36 -50 84
-6 54 -8 57 -57 81 -59 30 -110 84 -136 144 l-21 49 48 -44 c26 -24 66 -52 88
-61z m2040 55 c-30 -72 -108 -147 -177 -169 -14 -4 -18 -16 -18 -53 0 -38 -5
-52 -25 -71 -23 -22 -32 -24 -126 -22 -56 2 -105 4 -108 6 -4 3 -7 19 -6 38
l0 33 103 3 102 3 0 54 c0 57 16 85 49 85 32 0 159 70 183 100 32 40 41 37 23
-7z m-1707 9 c9 -6 12 -36 10 -113 l-3 -104 -90 0 -90 0 -3 53 -3 52 69 0 69
0 -13 51 c-8 29 -11 56 -8 60 7 11 45 11 62 1z m1318 -41 c-3 -22 -9 -46 -12
-55 -5 -14 3 -16 54 -16 70 0 81 -9 74 -67 l-4 -43 -89 0 -89 0 0 110 0 110
36 0 37 0 -7 -39z m-1394 -313 c8 -7 18 -28 22 -46 10 -55 71 -177 111 -221
l38 -42 -30 -31 -31 -30 -42 57 c-23 31 -55 83 -71 115 -31 63 -64 184 -54
200 9 14 38 12 57 -2z m92 -10 c9 -12 16 -30 16 -39 0 -30 40 -112 77 -157 33
-41 35 -45 19 -60 -12 -13 -21 -14 -34 -6 -54 33 -154 242 -130 271 16 19 35
16 52 -9z m1286 -1 c0 -21 -42 -140 -59 -167 -54 -89 -91 -116 -118 -89 -8 8
-2 23 23 56 45 59 58 85 79 156 15 53 19 57 46 57 17 0 29 -5 29 -13z m90 -9
c0 -71 -80 -249 -141 -316 -31 -35 -32 -34 -67 10 -12 15 -9 23 20 60 50 63
73 105 98 183 29 89 26 85 61 85 23 0 29 -4 29 -22z m-1026 -343 c82 -37 174
-55 294 -55 152 0 238 32 351 132 30 26 58 45 61 41 4 -5 35 -41 71 -82 l64
-73 -63 -59 c-40 -38 -91 -72 -144 -98 -140 -67 -182 -76 -363 -76 -177 0
-234 12 -383 80 -73 34 -192 134 -192 161 0 8 30 45 66 84 l66 70 57 -49 c31
-27 83 -61 115 -76z"/>
<path d="M1087 2278 c2 -90 4 -316 5 -503 3 -333 3 -341 26 -387 27 -55 64
-88 136 -125 77 -39 101 -43 232 -44 98 0 132 4 176 21 74 28 133 73 166 128
l27 47 6 300 c3 165 6 395 5 510 l-1 210 -135 0 -135 0 0 -30 c1 -23 6 -31 25
-35 14 -3 29 -15 35 -27 6 -14 20 -23 40 -25 27 -3 30 -6 30 -39 0 -21 8 -45
18 -56 21 -24 22 -42 2 -70 -13 -18 -13 -22 0 -33 18 -15 20 -51 4 -67 -8 -8
-8 -17 1 -33 22 -40 7 -50 -75 -50 l-75 0 0 55 0 55 44 0 c25 0 47 3 49 8 3 4
3 46 0 95 l-6 87 -209 0 -209 0 3 -92 3 -93 53 -3 52 -3 0 -229 0 -229 -52 -3
-53 -3 0 -90 0 -90 210 0 210 0 0 90 0 90 -47 3 -48 3 0 65 0 65 78 -3 c73 -3
77 -4 80 -27 2 -15 -3 -28 -12 -33 -20 -11 -21 -42 -1 -58 19 -16 19 -60 -1
-88 -14 -20 -14 -23 0 -28 24 -9 20 -51 -4 -57 -16 -4 -19 -11 -15 -29 7 -28
-25 -64 -49 -55 -9 4 -16 -4 -19 -23 -7 -32 -36 -46 -65 -31 -14 7 -21 5 -30
-10 -14 -22 -54 -25 -72 -4 -10 12 -15 12 -39 -6 -30 -22 -57 -17 -66 13 -6
15 -12 18 -36 13 -34 -8 -59 8 -59 37 0 12 -5 18 -12 15 -7 -2 -23 -1 -35 4
-25 9 -31 43 -11 55 7 5 4 10 -11 15 -29 11 -38 39 -18 54 15 11 16 14 2 25
-19 16 -19 54 0 70 14 12 14 15 0 30 -20 22 -19 50 2 65 17 13 17 14 0 32 -21
24 -22 66 -2 83 13 11 12 15 -5 37 -25 32 -25 54 -1 84 18 24 18 25 0 47 -19
24 -16 49 9 69 14 11 14 14 0 30 -26 30 -28 61 -6 88 19 24 19 27 4 44 -22 25
-20 48 8 75 12 13 26 32 30 41 4 13 14 16 37 13 21 -3 33 0 36 9 3 8 16 18 28
23 21 8 39 52 27 65 -3 3 -69 5 -146 5 l-141 0 2 -162z m249 125 c1 -14 -45
-45 -56 -38 -12 8 -60 -20 -60 -35 0 -5 -11 -20 -25 -34 -27 -27 -33 -74 -13
-94 9 -9 8 -16 -5 -30 -20 -22 -22 -61 -3 -87 11 -16 11 -23 -3 -47 -15 -26
-15 -30 0 -56 14 -24 14 -31 3 -47 -18 -25 -18 -65 1 -92 10 -14 12 -24 5 -28
-14 -9 -12 -78 3 -94 10 -11 10 -14 0 -18 -16 -6 -17 -69 -2 -78 7 -5 5 -12
-5 -23 -15 -17 -12 -67 5 -78 5 -3 3 -13 -3 -23 -9 -15 -8 -24 5 -45 9 -14 17
-34 17 -45 0 -21 47 -64 61 -55 5 3 9 -2 9 -10 0 -20 44 -49 67 -44 9 2 27 -7
40 -19 26 -27 50 -29 75 -7 14 14 20 15 33 4 20 -17 76 -15 90 2 5 7 23 14 40
15 18 1 37 11 50 27 11 14 26 26 33 26 19 0 52 38 52 60 0 11 9 29 20 40 24
24 25 43 4 65 -12 12 -13 19 -4 30 17 20 15 69 -3 95 -14 20 -14 23 4 41 24
24 24 40 -2 73 -19 25 -25 26 -110 26 l-90 0 3 -92 3 -93 48 -3 47 -3 0 -65 0
-64 -185 0 -185 0 0 65 0 65 50 0 50 0 0 260 0 260 -52 0 -53 0 -2 65 -3 65
188 0 187 0 3 -65 2 -65 -50 0 -50 0 0 -85 0 -85 95 0 c93 0 96 1 107 26 9 19
9 33 1 55 -6 16 -7 29 -3 29 17 0 21 41 7 64 -10 15 -12 28 -6 37 14 22 11 65
-6 79 -11 9 -14 22 -10 40 4 19 -1 33 -19 53 -14 15 -31 27 -39 27 -8 0 -22 9
-32 20 -10 11 -24 20 -32 20 -7 0 -13 5 -13 10 0 7 39 10 111 8 l110 -3 -1
-453 c-1 -449 -5 -524 -35 -582 -39 -76 -172 -131 -317 -131 -119 -1 -190 17
-262 66 -73 49 -92 80 -106 171 -9 65 -15 926 -6 935 8 8 221 0 222 -8z"/>
<path d="M2358 2433 c7 -3 16 -2 19 1 4 3 -2 6 -13 5 -11 0 -14 -3 -6 -6z"/>
<path d="M1900 1248 c0 -7 14 -26 30 -42 22 -22 27 -32 18 -38 -10 -5 -8 -8 5
-8 9 0 26 -9 37 -20 23 -23 30 -25 30 -7 0 11 -106 127 -116 127 -2 0 -4 -6
-4 -12z"/>
<path d="M987 1192 c-55 -55 -56 -58 -41 -80 8 -12 21 -22 28 -22 17 0 46 33
46 51 0 9 -7 5 -19 -10 -13 -17 -24 -22 -36 -17 -15 5 -11 14 31 60 48 52 74
68 74 44 0 -6 -7 -20 -17 -30 -9 -10 -12 -18 -6 -18 5 0 18 9 27 19 14 15 15
24 6 40 -6 12 -16 21 -23 21 -7 0 -38 -26 -70 -58z"/>
<path d="M1860 1215 c0 -8 101 -129 111 -133 23 -9 4 26 -42 79 -45 52 -69 71
-69 54z"/>
<path d="M1056 1138 c-62 -69 -76 -101 -21 -48 29 28 36 31 50 20 14 -12 12
-17 -16 -46 -18 -19 -29 -37 -25 -41 8 -8 37 22 93 95 31 39 23 55 -9 18 -16
-18 -27 -23 -37 -17 -11 7 -10 15 9 41 39 55 14 43 -44 -22z"/>
<path d="M1812 1173 c-13 -25 -1 -50 46 -103 34 -38 43 -43 59 -34 32 20 26
48 -22 102 -50 55 -69 63 -83 35z m77 -56 c42 -50 48 -62 32 -71 -12 -8 -101
91 -101 111 0 25 25 10 69 -40z"/>
<path d="M1146 1075 c-49 -80 -51 -85 -37 -85 15 0 102 143 93 152 -6 6 -28
-21 -56 -67z"/>
<path d="M1760 1144 c0 -4 14 -29 31 -57 17 -27 35 -61 40 -75 8 -20 12 -23
22 -13 9 9 9 15 -1 29 -7 9 -24 41 -39 70 -15 28 -33 52 -40 52 -7 0 -13 -3
-13 -6z"/>
<path d="M1195 1054 c-42 -89 -42 -125 1 -44 44 85 54 109 44 115 -4 3 -25
-29 -45 -71z"/>
<path d="M1720 1125 c0 -3 9 -24 20 -45 11 -22 16 -40 10 -40 -12 0 -40 28
-56 56 -23 38 -21 7 4 -71 30 -93 28 -89 41 -80 7 4 6 18 -5 43 -30 69 -29 66
-5 52 13 -6 30 -25 39 -41 10 -16 23 -29 30 -29 16 0 15 6 -3 38 -8 15 -24 48
-35 75 -10 26 -24 47 -30 47 -5 0 -10 -2 -10 -5z"/>
<path d="M1271 1067 c-11 -27 -21 -53 -21 -57 0 -5 -5 -12 -10 -15 -7 -4 -8 3
-4 21 5 18 3 25 -4 20 -11 -6 -13 -96 -3 -96 11 0 73 151 68 163 -3 7 -14 -10
-26 -36z"/>
<path d="M1315 1086 c-3 -6 -15 -41 -29 -79 -23 -64 -23 -68 -6 -77 24 -13 60
-13 60 0 0 6 -11 8 -25 4 -28 -7 -32 6 -15 51 8 21 15 25 33 20 21 -6 21 -6 3
9 -16 13 -18 20 -8 41 15 32 25 32 42 -2 7 -16 23 -49 36 -74 13 -25 21 -49
17 -53 -14 -13 -34 -5 -43 19 -12 32 -20 32 -20 0 0 -30 32 -50 59 -36 31 17
33 41 5 88 -25 43 -26 73 -4 73 6 0 15 -10 20 -22 8 -22 9 -22 9 5 1 15 -5 28
-11 28 -23 2 -43 -3 -49 -13 -4 -5 -9 -3 -12 5 -7 18 -57 29 -62 13z"/>
<path d="M1643 1088 c18 -47 29 -140 19 -150 -7 -7 -14 -9 -17 -6 -9 9 -35
110 -35 136 0 21 -14 30 -23 15 -5 -8 16 -120 27 -149 4 -10 16 -14 33 -12 21
2 29 9 31 27 5 33 -18 140 -31 148 -6 4 -8 0 -4 -9z"/>
<path d="M1470 995 l0 -85 34 0 c19 0 38 5 41 11 10 16 -4 24 -17 11 -22 -22
-38 -13 -38 22 0 28 4 35 23 39 l22 4 -22 2 c-19 1 -23 7 -23 36 0 36 15 46
38 23 9 -9 12 -8 12 5 0 13 -9 17 -35 17 l-35 0 0 -85z"/>
<path d="M700 538 c0 -25 -4 -28 -33 -28 -32 0 -33 -1 -29 -33 3 -31 6 -33 30
-28 25 5 25 6 5 9 -31 5 -29 28 2 34 24 5 25 4 25 -55 0 -61 11 -76 12 -18 1
24 5 31 22 31 29 0 42 11 49 42 7 26 6 26 -35 21 -29 -4 -39 -3 -34 5 4 7 2
20 -3 29 -9 16 -10 14 -11 -9z m70 -52 c0 -22 -48 -26 -53 -4 -4 14 1 18 24
18 18 0 29 -5 29 -14z"/>
<path d="M1450 555 c0 -15 18 -40 24 -34 3 3 -1 14 -9 25 -8 10 -14 15 -15 9z"/>
<path d="M1499 537 c-10 -22 -19 -26 -63 -29 -41 -2 -52 -7 -54 -22 -4 -18 -3
-19 13 -3 9 10 32 17 55 17 30 0 41 6 55 26 9 14 14 28 11 31 -3 3 -11 -6 -17
-20z"/>
<path d="M1960 550 c0 -6 -21 -34 -47 -62 -36 -39 -41 -47 -19 -33 16 11 45
19 65 19 34 -1 35 -1 4 3 -32 4 -32 5 -17 29 l16 24 39 -35 c22 -19 44 -35 51
-35 13 0 -51 59 -64 60 -5 0 -8 6 -8 14 0 8 -4 18 -10 21 -5 3 -10 1 -10 -5z"/>
<path d="M890 463 c0 -49 4 -83 10 -83 6 0 10 32 10 75 l0 75 60 0 60 0 0 -34
c0 -18 -3 -47 -6 -64 -6 -29 -9 -31 -58 -34 l-51 -3 63 -5 62 -5 0 80 0 80
-75 0 -75 0 0 -82z"/>
<path d="M1140 463 c0 -49 4 -83 10 -83 6 0 10 31 10 74 l0 74 55 4 55 3 0
-67 c0 -46 -4 -68 -12 -68 -9 0 -9 -3 -1 -11 23 -23 33 3 33 80 l0 78 -75 -1
-75 -1 0 -82z"/>
<path d="M1410 541 c0 -5 5 -13 10 -16 6 -3 10 -2 10 4 0 5 -4 13 -10 16 -5 3
-10 2 -10 -4z"/>
<path d="M1766 525 c-5 -19 -13 -25 -34 -26 -17 -1 -20 -3 -9 -6 21 -6 22 -35
1 -75 -9 -16 -11 -27 -5 -23 6 3 18 19 26 36 11 20 23 29 41 29 14 0 23 4 20
9 -3 4 -17 6 -31 3 -30 -5 -31 -3 -4 42 12 20 17 36 11 36 -5 0 -13 -11 -16
-25z"/>
<path d="M2169 499 c-46 -48 -52 -62 -16 -34 11 7 25 11 33 8 7 -3 27 0 43 5
22 8 34 7 48 -3 11 -9 13 -15 6 -16 -7 -1 -17 -3 -23 -4 -5 -1 -34 -4 -62 -5
-33 -2 -43 -5 -25 -7 23 -4 27 -8 22 -26 l-6 -22 17 23 c9 12 25 22 36 22 10
0 33 7 50 16 l32 16 -31 13 c-16 7 -39 24 -50 39 -12 14 -22 25 -24 25 -2 -1
-25 -24 -50 -50z m63 -11 c-9 -4 -26 -7 -36 -7 -18 -1 -18 1 4 24 21 23 24 23
36 7 10 -14 10 -18 -4 -24z"/>
<path d="M1679 520 c0 -11 -1 -36 -1 -55 0 -69 2 -85 10 -85 4 0 7 36 7 80 0
44 -3 80 -7 80 -5 0 -8 -9 -9 -20z"/>
<path d="M1710 536 c0 -2 7 -7 16 -10 8 -3 12 -2 9 4 -6 10 -25 14 -25 6z"/>
<path d="M1628 523 c7 -3 12 -23 12 -48 0 -26 -5 -45 -12 -48 -7 -2 -10 -8 -6
-12 17 -18 33 13 33 63 1 46 -2 52 -20 51 -11 0 -14 -3 -7 -6z"/>
<path d="M950 510 c-17 -5 -19 -8 -7 -9 21 -1 23 -21 2 -21 -8 0 -15 -4 -15
-10 0 -5 7 -7 15 -4 8 4 15 2 15 -2 0 -14 -14 -31 -30 -37 -8 -3 -1 -6 15 -6
30 -1 30 0 27 44 -3 38 -2 44 12 39 9 -3 16 -1 16 5 0 12 -13 13 -50 1z"/>
<path d="M1516 513 c5 -5 11 -12 15 -16 3 -4 12 -1 19 8 11 13 9 15 -15 15
-16 0 -24 -3 -19 -7z"/>
<path d="M1175 501 c-3 -6 10 -7 32 -4 50 8 55 13 10 13 -20 0 -38 -4 -42 -9z"/>
<path d="M1485 480 c-3 -5 -20 -7 -38 -4 -30 4 -31 4 -7 -6 27 -12 70 -6 70
10 0 13 -17 13 -25 0z"/>
<path d="M1180 456 c0 -31 12 -38 45 -30 18 4 25 13 25 30 0 21 -5 24 -35 24
-30 0 -35 -3 -35 -24z m50 -1 c0 -8 -9 -15 -20 -15 -11 0 -20 7 -20 15 0 8 9
15 20 15 11 0 20 -7 20 -15z"/>
<path d="M1710 459 c0 -5 5 -7 10 -4 6 3 10 8 10 11 0 2 -4 4 -10 4 -5 0 -10
-5 -10 -11z"/>
<path d="M993 442 c0 -12 5 -22 9 -22 11 0 10 12 -2 30 -7 12 -9 10 -7 -8z"/>
<path d="M1423 442 c-24 -2 -43 -7 -43 -11 0 -5 21 -6 46 -3 41 4 46 3 42 -14
-2 -10 -11 -18 -19 -16 -11 3 -11 1 -2 -8 16 -17 33 -4 33 25 0 29 -4 31 -57
27z"/>
<path d="M1503 443 c9 -2 25 -2 35 0 9 3 1 5 -18 5 -19 0 -27 -2 -17 -5z"/>
<path d="M1760 448 c0 -4 5 -18 11 -32 12 -25 39 -43 39 -26 0 6 -3 10 -8 10
-4 0 -15 12 -24 28 -10 15 -18 24 -18 20z"/>
<path d="M1920 415 c0 -32 2 -35 29 -35 47 0 61 10 61 41 0 26 -4 29 -30 29
-16 0 -30 -4 -30 -9 0 -4 11 -6 25 -3 28 5 30 0 15 -29 -6 -10 -20 -19 -30
-19 -16 0 -20 7 -20 30 0 17 -4 30 -10 30 -5 0 -10 -16 -10 -35z"/>
<path d="M2255 400 c10 -11 20 -18 23 -15 7 6 -18 35 -31 35 -5 0 -2 -9 8 -20z"/>
<path d="M2160 389 c0 -12 51 -11 70 1 10 6 2 9 -28 8 -23 0 -42 -4 -42 -9z"/>
<path d="M1043 323 c241 -2 633 -2 870 0 238 1 41 2 -438 2 -478 0 -673 -1
-432 -2z"/>
<path d="M629 249 c-8 -16 -8 -28 0 -45 11 -25 45 -32 57 -13 4 7 -2 9 -17 7
-21 -3 -24 1 -24 27 0 22 4 30 18 29 9 -1 17 2 17 7 0 18 -40 8 -51 -12z"/>
<path d="M770 225 c0 -28 4 -44 10 -40 6 3 10 21 10 40 0 19 -4 37 -10 40 -6
4 -10 -12 -10 -40z"/>
<path d="M823 225 c0 -27 2 -38 4 -22 2 15 2 37 0 50 -2 12 -4 0 -4 -28z"/>
<path d="M928 225 c-2 -25 0 -45 4 -45 5 0 8 20 8 45 0 25 -2 45 -4 45 -2 0
-6 -20 -8 -45z"/>
<path d="M1080 243 l0 -28 -20 25 -20 25 1 -45 c1 -39 2 -41 8 -15 l6 30 18
-25 17 -24 0 42 c0 23 -2 42 -5 42 -3 0 -5 -12 -5 -27z"/>
<path d="M1182 228 c3 -39 6 -43 31 -46 16 -2 27 2 27 8 0 8 -9 10 -25 6 -23
-6 -25 -4 -25 29 0 33 2 35 26 29 19 -5 25 -4 20 5 -4 6 -18 11 -32 11 -23 0
-25 -3 -22 -42z"/>
<path d="M1327 263 c-14 -13 -6 -30 19 -41 29 -14 22 -36 -8 -26 -14 4 -18 2
-14 -5 9 -14 43 -14 52 1 4 6 -3 20 -17 31 -13 11 -23 26 -21 33 3 15 -1 18
-11 7z"/>
<path d="M1360 260 c0 -5 5 -10 11 -10 5 0 7 5 4 10 -3 6 -8 10 -11 10 -2 0
-4 -4 -4 -10z"/>
<path d="M1472 228 c-2 -45 0 -48 23 -48 14 0 25 5 25 11 0 6 -9 9 -19 6 -17
-4 -21 1 -24 37 l-4 41 -1 -47z"/>
<path d="M1500 260 c0 -5 5 -10 10 -10 6 0 10 5 10 10 0 6 -4 10 -10 10 -5 0
-10 -4 -10 -10z"/>
<path d="M1724 228 c1 -34 5 -44 20 -46 10 -2 22 2 27 10 12 18 11 68 -1 68
-5 0 -10 -16 -10 -35 0 -51 -28 -47 -33 5 l-4 40 1 -42z"/>
<path d="M1863 225 c-1 -25 2 -43 7 -40 13 8 18 54 6 70 -9 12 -11 6 -13 -30z"/>
<path d="M1907 238 c-2 -18 -1 -40 4 -48 5 -10 8 1 9 33 0 55 -6 61 -13 15z"/>
<path d="M2010 225 c0 -25 5 -45 10 -45 6 0 10 20 10 45 0 25 -4 45 -10 45 -5
0 -10 -20 -10 -45z"/>
<path d="M2124 245 c-3 -14 -4 -32 0 -40 14 -39 66 -23 66 19 0 47 -55 64 -66
21z m44 2 c16 -18 3 -59 -17 -55 -17 3 -26 31 -17 54 7 17 20 18 34 1z"/>
<path d="M2271 224 c2 -46 2 -47 8 -14 l7 35 22 -35 22 -35 -1 50 c-1 40 -3
44 -8 20 l-6 -29 -23 28 -22 29 1 -49z"/>
<path d="M1205 230 c-3 -5 -2 -10 4 -10 5 0 13 5 16 10 3 6 2 10 -4 10 -5 0
-13 -4 -16 -10z"/>
<path d="M1495 230 c-3 -5 -1 -10 4 -10 6 0 11 5 11 10 0 6 -2 10 -4 10 -3 0
-8 -4 -11 -10z"/>
</g>
</svg>
